<mxfile host="app.diagrams.net" modified="2024-07-23T11:27:39.301Z" agent="Mozilla/5.0 (Windows NT 10.0; Win64; x64) AppleWebKit/537.36 (KHTML, like Gecko) Chrome/126.0.0.0 Safari/537.36 Edg/126.0.0.0" version="24.7.1" etag="niP7BdC2PevaeMBgWYMo" type="github">
  <diagram name="Page-1" id="QmL0RmvMfr4ehMvays_y">
    <mxGraphModel>
      <root>
        <mxCell id="0" />
        <mxCell id="1" parent="0" />
      </root>
    </mxGraphModel>
  </diagram>
</mxfile>
